<mxfile host="65bd71144e">
    <diagram name="Arquitetura de Chatbot com Google Cloud, Python, Dialogflow, Twilio, MongoDB, RESTful API" id="0">
        <mxGraphModel dx="967" dy="409" grid="1" gridSize="10" guides="1" tooltips="1" connect="1" arrows="1" fold="1" page="1" pageScale="1" pageWidth="827" pageHeight="1169" math="0" shadow="0">
            <root>
                <mxCell id="0"/>
                <mxCell id="1" parent="0"/>
                <mxCell id="2" value="&lt;font color=&quot;#000000&quot;&gt;Interações de Usuários&lt;/font&gt;" style="rounded=1;whiteSpace=wrap;html=1;fillColor=#f0f0f0;" parent="1" vertex="1">
                    <mxGeometry x="60" y="40" width="160" height="40" as="geometry"/>
                </mxCell>
                <mxCell id="3" value="Usuário envia mensagem via Web/WhatsApp (Twilio)" style="shape=mxgraph.people.customer;whiteSpace=wrap;html=1;" parent="1" vertex="1">
                    <mxGeometry x="80" y="100" width="120" height="60" as="geometry"/>
                </mxCell>
                <mxCell id="4" value="Cloud Endpoints (REST)" style="shape=mxgraph.gcp.cloud_endpoints;whiteSpace=wrap;html=1;" parent="1" vertex="1">
                    <mxGeometry x="260" y="100" width="80" height="60" as="geometry"/>
                </mxCell>
                <mxCell id="5" value="Google Cloud Functions (Python)" style="shape=mxgraph.gcp.cloud_functions;whiteSpace=wrap;html=1;" parent="1" vertex="1">
                    <mxGeometry x="360" y="100" width="80" height="60" as="geometry"/>
                </mxCell>
                <mxCell id="6" value="Dialogflow (NLP)" style="shape=mxgraph.gcp.dialogflow;whiteSpace=wrap;html=1;" parent="1" vertex="1">
                    <mxGeometry x="480" y="100" width="120" height="60" as="geometry"/>
                </mxCell>
                <mxCell id="7" value="MongoDB &lt;br&gt;(Banco de Dados)" style="shape=mxgraph.gcp.mongodb;whiteSpace=wrap;html=1;" parent="1" vertex="1">
                    <mxGeometry x="360" y="200" width="100" height="70" as="geometry"/>
                </mxCell>
                <mxCell id="8" value="Google Cloud Storage (Armazenamento Estático)" style="shape=mxgraph.gcp.cloud_storage;whiteSpace=wrap;html=1;" parent="1" vertex="1">
                    <mxGeometry x="240" y="200" width="100" height="60" as="geometry"/>
                </mxCell>
                <mxCell id="9" parent="1" source="3" target="4" edge="1">
                    <mxGeometry relative="1" as="geometry"/>
                </mxCell>
                <mxCell id="10" parent="1" source="4" target="5" edge="1">
                    <mxGeometry relative="1" as="geometry"/>
                </mxCell>
                <mxCell id="11" parent="1" source="5" target="6" edge="1">
                    <mxGeometry relative="1" as="geometry"/>
                </mxCell>
                <mxCell id="12" parent="1" source="5" target="7" edge="1">
                    <mxGeometry relative="1" as="geometry"/>
                </mxCell>
                <mxCell id="13" parent="1" source="5" target="8" edge="1">
                    <mxGeometry relative="1" as="geometry"/>
                </mxCell>
                <mxCell id="14" value="&lt;font color=&quot;#000000&quot;&gt;Infraestrutura Google Cloud&lt;/font&gt;" style="rounded=1;whiteSpace=wrap;html=1;fillColor=#d9f2ff;" parent="1" vertex="1">
                    <mxGeometry x="240" y="40" width="210" height="40" as="geometry"/>
                </mxCell>
                <mxCell id="15" value="&lt;font color=&quot;#000000&quot;&gt;Processamento NLP&lt;/font&gt;" style="rounded=1;whiteSpace=wrap;html=1;fillColor=#d9f2ff;" parent="1" vertex="1">
                    <mxGeometry x="460" y="40" width="160" height="40" as="geometry"/>
                </mxCell>
                <mxCell id="16" value="Vertex AI (IA Generativa)" style="shape=mxgraph.gcp.vertex_ai;whiteSpace=wrap;html=1;" vertex="1" parent="1">
                    <mxGeometry x="480" y="200" width="120" height="60" as="geometry"/>
                </mxCell>
                <mxCell id="17" edge="1" parent="1" source="6" target="16">
                    <mxGeometry relative="1" as="geometry"/>
                </mxCell>
            </root>
        </mxGraphModel>
    </diagram>
</mxfile>